<mxfile host="app.diagrams.net" modified="2023-04-27T11:52:35.405Z" agent="Mozilla/5.0 (Windows NT 10.0; Win64; x64) AppleWebKit/537.36 (KHTML, like Gecko) Chrome/112.0.0.0 Safari/537.36" version="21.2.3" etag="2ezweH3LXc-hl2MiCqHd" type="github">
  <diagram name="페이지-1" id="dxe3vGjFM-mrZ4M2oYnB">
    <mxGraphModel>
      <root>
        <mxCell id="0" />
        <mxCell id="1" parent="0" />
      </root>
    </mxGraphModel>
  </diagram>
</mxfile>
